<mxfile host="app.diagrams.net" modified="2022-11-23T01:09:49.166Z" agent="5.0 (Windows NT 10.0; Win64; x64) AppleWebKit/537.36 (KHTML, like Gecko) Chrome/107.0.0.0 Safari/537.36" version="20.6.0" etag="nB7f_jzYtiQs79x2uwAk" type="github">
  <diagram id="rmecrBFA3HAIo7wlJgUH" name="Page-1">
    <mxGraphModel dx="876" dy="732" grid="1" gridSize="10" guides="1" tooltips="1" connect="1" arrows="1" fold="1" page="1" pageScale="1" pageWidth="850" pageHeight="1100" math="0" shadow="0">
      <root>
        <mxCell id="0" />
        <mxCell id="1" parent="0" />
        <mxCell id="v22V7W821MxPXGZ-Irj3-3" style="edgeStyle=orthogonalEdgeStyle;rounded=0;orthogonalLoop=1;jettySize=auto;html=1;exitX=0.5;exitY=1;exitDx=0;exitDy=0;entryX=0.5;entryY=0;entryDx=0;entryDy=0;curved=1;" edge="1" parent="1" source="v22V7W821MxPXGZ-Irj3-1" target="v22V7W821MxPXGZ-Irj3-2">
          <mxGeometry relative="1" as="geometry" />
        </mxCell>
        <mxCell id="v22V7W821MxPXGZ-Irj3-1" value="" style="rounded=0;whiteSpace=wrap;html=1;" vertex="1" parent="1">
          <mxGeometry x="40" y="100" width="120" height="60" as="geometry" />
        </mxCell>
        <mxCell id="v22V7W821MxPXGZ-Irj3-2" value="" style="rounded=0;whiteSpace=wrap;html=1;" vertex="1" parent="1">
          <mxGeometry x="170" y="260" width="120" height="60" as="geometry" />
        </mxCell>
      </root>
    </mxGraphModel>
  </diagram>
</mxfile>
